<svg xmlns="http://www.w3.org/2000/svg" width="512" height="512" viewBox="0 0 512 512">
  <defs>
    <style>
      .cls-1 {
        fill: #ffc002;
        fill-rule: evenodd;
      }
    </style>
  </defs>
  <path id="Alert_Triangle" data-name="Alert Triangle" class="cls-1" d="M384.116,382.5c-0.5.291-1.016,0.566-1.528,0.831h0c-0.17.087-.342,0.169-0.512,0.253h0c-0.346.172-.691,0.339-1.04,0.5h0c-0.2.094-.41,0.183-0.615,0.273h0q-0.478.209-.959,0.4h0c-0.219.088-.437,0.175-0.656,0.259h0c-0.316.12-.632,0.232-0.95,0.343h0q-0.546.19-1.1,0.362c-0.209.064-.419,0.131-0.629,0.192h0q-1.463.43-2.942,0.732h0c-0.219.045-.438,0.091-0.658,0.132h0c-0.42.078-.84,0.145-1.26,0.208l-0.294.044h0a36.493,36.493,0,0,1-7.052.307l-0.05,0h0c-0.447-.024-0.893-0.058-1.338-0.1h0l-0.167-.015h0c-0.456-.044-0.912-0.1-1.365-0.156H151.151c-0.454.061-.909,0.112-1.366,0.156l-0.167.015c-0.445.041-.891,0.075-1.337,0.1l-0.135.006a36.57,36.57,0,0,1-5.494-.134c-0.137-.014-0.275-0.026-0.413-0.041-0.354-.039-0.707-0.086-1.06-0.136q-0.285-.041-0.57-0.085c-0.329-.052-0.657-0.106-0.985-0.167-0.219-.041-0.439-0.087-0.658-0.132-0.306-.063-0.613-0.124-0.919-0.2-0.277-.064-0.552-0.138-0.829-0.209-0.4-.1-0.8-0.211-1.194-0.328-0.356-.1-0.711-0.209-1.065-0.325-0.221-.072-0.441-0.152-0.661-0.229-0.317-.111-0.634-0.223-0.949-0.343-0.22-.084-0.438-0.171-0.657-0.259q-0.48-.194-0.958-0.4c-0.206-.09-0.411-0.179-0.616-0.273q-0.522-.24-1.039-0.5c-0.171-.084-0.343-0.166-0.512-0.253-0.513-.265-1.023-0.54-1.528-0.831-0.737-.425-1.445-0.879-2.14-1.346q-0.254-.17-0.5-0.342c-0.684-.476-1.354-0.965-2-1.48l-0.038-.032c-0.636-.511-1.245-1.046-1.839-1.593q-0.2-.183-0.4-0.369c-0.6-.568-1.182-1.149-1.736-1.751l-0.016-.018c-0.553-.6-1.077-1.224-1.584-1.857q-0.142-.177-0.282-0.355a36.179,36.179,0,0,1-2.768-4.088c-0.064-.109-0.128-0.218-0.191-0.329-0.412-.724-0.8-1.458-1.163-2.206a36.477,36.477,0,0,1,3.7-38.323L224.332,142.848c0.382-.66.786-1.3,1.2-1.925,0.121-.183.246-0.361,0.37-0.541q0.48-.7.988-1.366c0.125-.164.248-0.331,0.375-0.493,0.46-.586.932-1.158,1.422-1.709,0.015-.018.032-0.034,0.047-0.051,0.478-.535.973-1.049,1.477-1.55,0.135-.135.273-0.266,0.41-0.4q0.635-.612,1.3-1.189c0.12-.1.237-0.211,0.358-0.314a36.269,36.269,0,0,1,3.552-2.665c0.114-.075.23-0.149,0.345-0.223q0.833-.535,1.689-1.024c0.069-.039.137-0.081,0.207-0.12a36.621,36.621,0,0,1,4.1-1.973l0.2-.079a36.758,36.758,0,0,1,6.637-1.957l0.049-.01a36.656,36.656,0,0,1,7.021-.668h0c0.751,0,1.5.022,2.256,0.069,0.053,0,.106,0,0.158.008,0.707,0.048,1.413.114,2.118,0.2,0.34,0.042.677,0.1,1.015,0.151,0.285,0.045.57,0.087,0.854,0.138,0.52,0.091,1.036.2,1.551,0.309l0.014,0a36.424,36.424,0,0,1,23.779,17.374L397.5,332.614A36.5,36.5,0,0,1,384.116,382.5ZM274,280.332c0,11.972-6.071,21.676-18,21.676s-18-9.7-18-21.676l-3.6-72.255a21.6,21.6,0,1,1,43.2,0Zm-18,39.74a18.064,18.064,0,1,1-18,18.064A18.032,18.032,0,0,1,256,320.072Z"/>
</svg>
